<svg id="Layer_1" data-name="Layer 1" xmlns="http://www.w3.org/2000/svg" viewBox="0 0 200 75"><defs><style>.cls-1,.cls-13,.cls-4{fill:#0c83c6;}.cls-2,.cls-3{fill:#fff;stroke-miterlimit:10;stroke-width:0.25px;}.cls-2{stroke:#4d95b8;}.cls-3{stroke:#0f83c6;}.cls-4{font-size:5.09px;font-family:Nunito-Regular, Nunito;letter-spacing:0.43em;}.cls-5{letter-spacing:0.43em;}.cls-6{letter-spacing:0.39em;}.cls-7{letter-spacing:0.43em;}.cls-8{letter-spacing:0.41em;}.cls-9{letter-spacing:0.43em;}.cls-10{letter-spacing:0.35em;}.cls-11{letter-spacing:0.38em;}.cls-12{letter-spacing:0.41em;}.cls-13{font-size:33.92px;font-family:NunitoSans-Bold, Nunito Sans;font-weight:700;}.cls-14{letter-spacing:-0.04em;}.cls-15{letter-spacing:0em;}.cls-16{letter-spacing:-0.02em;}.cls-17{letter-spacing:0em;}</style></defs><path class="cls-1" d="M6,22.57l-3.12,4.9A19.82,19.82,0,0,1,6,22.57Z"/><path class="cls-1" d="M9.77,29.94V51.73A19.69,19.69,0,0,1,2.86,27.48H7.31A2.46,2.46,0,0,1,9.77,29.94Z"/><path class="cls-1" d="M40.49,35.47A19.67,19.67,0,0,1,24.43,54.8a19.36,19.36,0,0,1-3.6.33,19.85,19.85,0,0,1-5.21-.7,2.38,2.38,0,0,0,.29-1.16V30a2.48,2.48,0,0,1,2.48-2.48H24a2.46,2.46,0,0,0,0-4.91H6a19.67,19.67,0,0,1,29.68,0h0a19.34,19.34,0,0,1,3.08,4.81h0A19.61,19.61,0,0,1,40.49,35.47Z"/><path class="cls-2" d="M15.62,54.43a19.52,19.52,0,0,1-5.85-2.7"/><path class="cls-2" d="M26.41,25A2.46,2.46,0,0,1,24,27.48H18.39A2.48,2.48,0,0,0,15.91,30V53.27a2.38,2.38,0,0,1-.29,1.16,19.52,19.52,0,0,1-5.85-2.7V29.94a2.46,2.46,0,0,0-2.46-2.46H2.86L6,22.57H24A2.45,2.45,0,0,1,26.41,25Z"/><path class="cls-3" d="M24.43,54.8a2.49,2.49,0,0,1-.53-1.53V29.94a2.46,2.46,0,0,0-2.46-2.46H24a2.46,2.46,0,0,0,0-4.91H35.67l3.08,4.81h0a2.46,2.46,0,0,1-.67.09H32.52A2.48,2.48,0,0,0,30,30V52.84"/><text class="cls-4" transform="translate(46.49 57.8)">T<tspan class="cls-5" x="5.24" y="0">E</tspan><tspan x="10.37" y="0">CHNO</tspan><tspan class="cls-6" x="34.05" y="0">L</tspan><tspan class="cls-7" x="38.8" y="0">O</tspan><tspan class="cls-8" x="44.88" y="0">G</tspan><tspan class="cls-9" x="50.68" y="0">Y </tspan><tspan class="cls-10" x="59.38" y="0">A</tspan><tspan x="64.88" y="0">T </tspan><tspan class="cls-11" x="73.61" y="0">Y</tspan><tspan x="78.6" y="0">OUR FINGE</tspan><tspan class="cls-12" x="125.05" y="0">R</tspan><tspan class="cls-7" x="130.53" y="0">TIPS</tspan></text><text class="cls-13" transform="translate(43.72 49.06)"><tspan class="cls-14">T</tspan><tspan class="cls-15" x="19.37" y="0">O</tspan><tspan class="cls-16" x="45.8" y="0">P</tspan><tspan x="67.61" y="0">T</tspan><tspan class="cls-17" x="88.4" y="0">E</tspan><tspan x="108.31" y="0">CH</tspan></text></svg>